<?xml version="1.0" standalone="no"?>
<!DOCTYPE svg PUBLIC "-//W3C//DTD SVG 20010904//EN"
 "http://www.w3.org/TR/2001/REC-SVG-20010904/DTD/svg10.dtd">
<svg version="1.0" xmlns="http://www.w3.org/2000/svg"
 width="700.000000pt" height="700.000000pt" viewBox="0 0 700.000000 700.000000"
 preserveAspectRatio="xMidYMid meet">
<metadata>
Created by potrace 1.14, written by Peter Selinger 2001-2017
</metadata>
<g transform="translate(0.000000,700.000000) scale(0.100000,-0.100000)"
fill="#000000" stroke="none">
<path d="M3280 6994 c-19 -2 -87 -9 -150 -15 -63 -6 -176 -22 -250 -35 -572
-105 -1076 -331 -1540 -690 -149 -115 -481 -446 -595 -594 -411 -532 -653
-1132 -727 -1795 -17 -155 -17 -575 0 -730 75 -673 332 -1300 748 -1820 117
-146 340 -373 491 -500 535 -447 1157 -711 1878 -797 139 -16 595 -16 730 0
691 84 1261 315 1795 727 148 115 479 446 594 595 414 536 647 1111 728 1795
16 139 16 595 0 730 -84 690 -316 1264 -728 1795 -116 150 -447 481 -594 594
-527 405 -1100 642 -1745 722 -122 15 -556 27 -635 18z m-685 -1829 c183 -24
293 -50 427 -101 436 -164 735 -485 852 -914 8 -30 23 -121 32 -201 17 -139
17 -155 1 -300 -24 -215 -61 -344 -146 -505 -129 -245 -347 -449 -616 -574
-99 -47 -220 -91 -282 -105 -18 -3 -33 -10 -33 -14 0 -20 87 -140 136 -187 82
-80 205 -131 359 -146 25 -3 30 -8 33 -34 2 -19 -2 -33 -10 -36 -7 -3 -74 -2
-148 3 -312 18 -513 115 -617 297 l-31 54 -223 3 c-236 3 -362 20 -548 74
-376 110 -695 361 -851 671 -108 215 -144 376 -144 640 0 186 10 272 49 403
133 446 474 771 960 912 44 12 96 26 115 29 19 4 53 11 75 17 119 29 439 36
610 14z m2862 -53 c10 -6 35 -89 88 -287 7 -27 32 -117 55 -200 23 -82 46
-163 50 -180 4 -16 27 -97 50 -180 23 -82 47 -172 54 -200 8 -27 32 -117 56
-200 23 -82 48 -172 55 -200 7 -27 30 -108 50 -180 20 -71 41 -148 46 -170 5
-22 16 -60 24 -85 7 -25 30 -106 50 -180 91 -334 113 -398 203 -572 2 -5 -149
-8 -336 -8 l-341 0 -6 57 c-3 32 -15 101 -26 153 -20 96 -25 118 -99 385 -23
83 -48 173 -55 200 -7 28 -19 70 -27 95 l-14 45 -426 3 c-333 2 -427 -1 -435
-10 -5 -7 -40 -125 -77 -263 -37 -137 -76 -281 -86 -320 -27 -100 -59 -242
-65 -297 l-6 -48 -65 0 c-38 0 -64 4 -64 10 0 6 8 27 19 48 26 52 69 173 93
262 31 120 43 163 103 380 57 208 90 330 105 385 4 17 27 98 50 180 22 83 50
184 61 225 12 41 25 89 29 105 4 17 17 64 28 105 11 41 39 143 62 225 40 141
49 177 84 308 7 28 25 93 40 144 27 95 34 192 17 237 -7 17 -7 26 2 30 20 8
641 6 654 -2z"/>
<path d="M2145 5079 c-180 -44 -354 -160 -471 -316 -60 -79 -141 -226 -170
-305 -173 -481 -141 -1105 77 -1503 87 -161 231 -310 363 -377 l40 -21 26 34
c173 231 469 252 670 48 32 -32 63 -59 68 -59 20 0 119 74 185 139 239 233
367 605 368 1063 1 459 -121 825 -354 1066 -126 129 -255 200 -430 237 -100
21 -271 18 -372 -6z"/>
<path d="M2205 2669 c-42 -22 -120 -91 -136 -121 -13 -24 15 -37 120 -54 144
-23 311 -15 311 15 0 30 -67 136 -100 159 -45 30 -139 31 -195 1z"/>
<path d="M4877 4898 c-21 -86 -36 -141 -102 -378 -31 -113 -63 -227 -70 -255
-18 -66 -43 -159 -110 -405 -84 -305 -86 -313 -92 -342 l-5 -28 406 0 c254 0
406 4 406 10 0 5 -6 29 -14 52 -14 41 -63 217 -91 323 -7 28 -32 118 -55 200
-92 327 -113 402 -125 450 -7 28 -30 109 -50 180 -20 72 -44 158 -52 193 -8
34 -19 62 -23 62 -4 0 -15 -28 -23 -62z"/>
</g>
</svg>
